<?xml version="1.0" encoding="utf-8"?>
<!-- Generator: Adobe Illustrator 18.0.0, SVG Export Plug-In . SVG Version: 6.00 Build 0)  -->
<!DOCTYPE svg PUBLIC "-//W3C//DTD SVG 1.1//EN" "http://www.w3.org/Graphics/SVG/1.1/DTD/svg11.dtd">
<svg version="1.1" id="Слой_2" xmlns="http://www.w3.org/2000/svg" xmlns:xlink="http://www.w3.org/1999/xlink" x="0px" y="0px"
	 viewBox="0 440 1590 418" enable-background="new 0 440 1590 418" xml:space="preserve">
<path fill="rgba(128, 128, 128, 0.4)"    d="M839.4,474.8c-1.1,0.7-3,2.8-4.4,2
	c0-0.8,0-1.6-0.4-2.3c-1.7,0.1-1.3-0.7-2.4-1.6c-1.1-0.9-1.6-0.4-2.8,0c-2.3,0.5-4.2,1.3-6.4,2.6c-2,1.2-4.4,2.8-5.2,4.9
	c-0.8,2.4-0.5,4.8-0.8,7.3c-0.1,2.1-0.3,4.2-0.4,6.4c-0.9-0.9-2.7-1.9-3.4-2.1c-2-0.5-4.2-0.1-6.2,0c-2.4,0.1-3.7-0.3-5.8,1.2
	c-3,2.3-6.4,2.4-8.1,6.1c-0.9,2-0.8,3.6-1.1,5.7c-0.1,2.1-0.8,3.6-1.3,5.4c-0.5,1.7-2.7,10.3-5.2,9.9c0-0.1-0.1-0.3-0.1-0.4
	c-1.7,1.1-2.5,3.7-3.4,5.4c-0.8,1.7-2.6,4.1-2.3,6l-0.5,1.3c-1.9-0.7-3.2-2.1-4.9-2.7c-1.7-0.5-3.2-0.9-4.9-1.6c0-1.1-1.9-3-2.5-4.1
	c-0.9-1.3-1.7-2.8-2.5-4.2c-1.2-2.5-4.4-7-2.9-9.8c0.3-0.7,1.2-1.3,1.7-1.9c0.9-1.1,0.7-0.9,2-1.1c2-0.1,3.7-0.8,5.7-0.9
	c2.1-0.1,3.2,0.1,4.5-1.7c1.2-1.7,0.8-3.2,1.1-5.3c0.1,0,0.3,0,0.4-0.1c0.5-0.9,1.1-2.1,0.7-3c2.9-1.2,1.6-3.8,1.9-6.2
	c1.6-0.8,4.1-0.3,3.8-2.9c-0.1-1.6-1.6-3.2-2.3-4.5c-0.4-0.8-0.7-1.7-0.8-2.5c-0.3-1.3,0-1.3,0.4-2.4c0.8-1.9,0.4-4,0.7-6.2
	c1.6-0.3,1.6-4.2,1.5-5.6c-0.1-1.9-0.7-4.1-1.6-6c-0.7-1.5-1.9-2.8-3-4c-1.5-1.5-3.2-1.9-4.9-2.9c-6.8-4.1-17-3.3-24.6-2
	c-2.7,0.4-5.3,1.1-7.8,2c-2.1,0.8-3.7,2.5-5.4,4c-3.6,3.3-5.7,7-7.3,11.7c2.1-0.4,1.7,4.8,2,6.2c0.7,2.4,0.8,3.2,1.2,5.7
	c0.4,2.6,2.3,4.9,2.9,7.4c0.4,1.5,0.7,5.4,2.4,5.7c0,0.3-0.8,3.3-0.8,3.6c-2,0.3-2.4,1.9-3.3,3.4c-0.7,1.2-2.4,3.3-2.1,4.6
	c0.4,0,0.5,0.3,0.9,0.4c-4.6,6-8.2,12.5-10.2,19.7c-2.3,8.2-3.8,17.2-1.7,25.6c0.5,2,1.1,4,1.6,6c0.5,2.1,0,4.4,0.3,6.5
	c0.3,4,0.9,8.3,1.6,12.3c0.7,4.2,0.7,8.7,0.3,13.1c-0.4,4.2-0.4,8.2-1.7,12.1c-1.2,3.4-2.7,6.8-3.7,10.2c-1.2,3.7-2.1,7.7-2.9,11.4
	c-0.9,4.1-1.3,8.5-2.5,12.6c-1.3,4.2-1.3,8.3-1.6,12.9c-0.1,2.7-0.8,13.1-0.8,13.1c2.3,0,4.1,0.7,6.2,0.8c1.2,0.1,4.8,0,5.6,0.9
	c0.4,0.5,0.3,2,0.5,2.7c0.3,1.1,0.7,2.1,0.8,3.2c0.3,2.1,0.4,4.2,0.8,6.2c0.4,2.1,0.8,3.4,0.3,5.4c-0.5,2-0.5,4.1-0.5,6.2
	c0,4.4-0.1,8.7,0.3,13.1c0.3,4.1,1.9,8-0.7,11.8c-1.1,1.7-2.4,3-3.3,4.8c-1.1,2-1.1,3.6-1.2,5.8c-0.3,4-1.5,8.1-2.3,11.8
	c-0.4,2-0.7,4-1.5,5.7c-0.7,1.7-1.7,3.3-2.3,5c-1.2,3.7-5,26-5.6,28c-0.9,4-2.4,8-3.2,12.1c-1.7,8.1-3.4,15.9-3.4,24.5
	c0,1.9,0,3.8,0,5.7c0,1.9-0.8,3.8-0.5,5.4c0,0,0.5,1.3,0.3,1.3c0.1,1.2-0.4,2.4-0.5,3.6c0,0.3,0,0.5,0,0.8c-0.9,1.2-1.5,3.6-1.6,4.6
	c4.5,2.7,9.4,5,9.4,5s1.7-1.3,3-2.8c0.5,1.3,1.6,2.6,2.3,3.6c1.1,1.5,2.7,2.5,4.2,3.3c4,1.9,14,0.8,18.3,0.3c1.7-0.1,4-0.5,5.6-1.3
	c2.7-1.3,6.8-0.5-1.3-3.3c-1.9-0.7-7.6-1.1-8.9-2.8c-1.1-1.5-3.3-2.5-3.7-4.1c-0.1-0.5-0.3-1.1-0.1-1.6l-0.3-2.9
	c2.8,1.2,2.8,1.2,4,1.3c1.5,0.3,2.8,0.4,4.1,1.1c0.3-2.9,0.4-5.6,0.8-8.3c0.5-2.9,1.1-6,1.3-8.9c0.1-3,3.2-11.3,3.7-12.6
	c0.4-0.9,0.5-2.8,1.2-3.3c-0.1,1.7,0.4,3.7,0.7,5.4c0.1,1.7,0.4,3.7,0.7,5.4c0.5,3.6,0.5,7.3,0.5,11c0,3.7-0.3,7.2-0.5,10.7
	c-0.1,1.7-0.5,3.4-0.8,5.2c-0.1,0.7-0.7,1.9-0.1,2.4c0.3,0.3,2.1,0.4,2.5,0.4c0.1,1.3,0.3,2.5,0.3,3.8c0,0.8-0.5,3.4-0.3,4
	c0.7,1.3,9.9,1.9,12.9,1.6c1.3-0.1,1.1-2.8,1.3-4.8c1.7,0.7,8.6,4.2,10.5,4.8c1.7,0.5,14.7,1.5,24.8,0.1c0.8-0.1,4.9-1.6,5.7-1.7
	c1.1-0.3-17.1-11.4-20.4-12.6l-2.1-2.4c-2.4-0.4-1.2-5.8-0.8-7.3c2-8.2,0.1-17.4,0.8-25.8c0.8-8.7,0-17.9,0-26.6
	c0-2.3-0.4-4.1-0.7-6.2c-0.4-2.1,0-4.4,0-6.5c0-4.4,0.3-8.6,0.3-13.1c0-8.7-0.8-17.5,0-26.1c0.1-2.1,0-4.4,0.3-6.5
	c0.1-2.1,0.4-4.4,0.5-6.5c0.3-4.2,0.3-8.7,0.5-13.1c0.1-2.1,0.1-4.1,0.3-6.2c0.1-2,1.1-10.3,1.1-12.6c0-1.6-1.5-5.7-0.5-6.8
	l-0.3-1.9c1.9-0.7,4.2-0.1,6.2-0.3c2.1-0.1,4.2-1.1,6.2-1.6c3.4-1.2,5-5.3,6.4-8.6c1.6-3.8,2.9-7.7,3.8-11.8
	c1.9-7.9,4.8-16.3,4.2-24.8c-0.5-8.5-3.2-16.4-4-24.8c-0.4-4.4-0.8-8.7-1.6-13.1c-0.4-2.1-0.5-4.4-1.1-6.5c-0.4-2-2.9-8.1-2.9-8.1
	c2.1,0,4-0.5,6-0.5c2.5,0,2.7,0.1,4.2-2c2-2.8,4.2-5.7,6.5-8.3c2.7-3,4.6-6.4,7-9.7c1.2-1.6,2.5-2.8,3.7-4.4
	c1.2-1.7,2.3-3.3,3.4-4.9c2.1-3.2,4-5.8,5.4-9.1c1.1-2.1-0.4-2.8-2.1-4.2c-1.2-1.1-2.6-2.5-4.2-2.9l-2.1-1.9c0-0.3,0-0.5,0-0.8
	c0-4.4,0.5-7.8,3.3-11.3c2.7-3.3,3.2-6,3.4-10.1c0.1-2-0.8-4.1,0.1-5.8c0.8-1.3,2.5-2.5,3.8-3.6
	C836.1,481.3,843.1,477.4,839.4,474.8z M813.6,503.7c-0.8,1.6-2,2.9-2.9,4.5c-1.9,3.3-3.2,6.9-5.3,10.2c-0.9,1.5-2,3-3,4.4
	c-0.9,1.3-2.3,4.5-3.6,5.2c-1.2-1.3-2.5-2.4-4-3.4c0.8-2.4,1.9-4.1,3.7-6c1.7-1.7,3.2-3,4.1-5.3c1.1-2.6,2.1-4.6,4.8-5.7
	c0.9-0.4,2.8-1.1,2.9-2.4c0.1-1.2-1.7-1.9-1.3-3c1.6-0.1,4.2,0.9,4.4-1.3c0.1-1.5-1.6-3.2-2.1-4.4c0.9-0.1,3.8,0.4,5.2-0.3
	c-0.1,1.1-0.4,2.1-0.8,3C815.1,500.8,814.3,502.2,813.6,503.7z"/>
<path fill="rgba(128, 128, 128, 0.4)"    d="M1081.6,688.1L1081.6,688.1l31.8-7.8v-4.5l-7.6,3.7
	l-23.7-73.9l-24.2,12.3l19.6,57.9v157.5h-22l-19.9-75.5l3.2-7.6l-5.3-0.7l-7-30.2l33.7-43.3c0,0,1.1-13.4-6.8-4
	c-4.1,4.9-19.3,24.9-32.9,42.7c0-1.9,0-3.6-0.3-5.4c-0.7-4.4-1.3-8.5-2.3-12.9c-0.9-4.1-1.1-8.6-2.4-12.6c-1.3-4.1-0.8-8.9-0.8-13.2
	c0-4.5-0.4-8.5-1.1-12.9c-0.7-4-1.1-8.2-2-12.1c-0.9-4-2.8-7.7-4.6-11.1c-3.4-6.2-8.7-11.8-14.4-15.9c-1.5-1.1-3.2-2.1-4.4-3.4
	c-0.5-0.5-3.7-3.6-3.6-4.2c0.1-0.8,2.3-0.5,2.9-0.7c1.2-0.3,1.5-0.5,2-1.6c0.9-1.6,1.3-3,2.8-4.4c2.8-2.6,6.8-4.2,10.3-5.3
	c4.1-1.1,7.6-2.9,11-5.4c3.2-2.4,5-6.6,3.8-10.5c-0.9-3.3-4.2-7.6-7.8-7.6c-2.1,0-2.9-0.5-4.9,0c-2,0.5-4.1,2.3-5,4.4
	c-1.3,2.9-0.5,9.1,3.8,8.9c-2.8,1.3-7.3-0.1-10.3,0.5c-2.5,0.5-5.7,1.7-7.8,3.2c-0.1-0.9-0.7-1.6-0.8-2.6c-0.1-0.9,0.1-2,0-2.9
	c-0.1-1.6-0.1-3.7-0.8-5.2c-0.8-1.6-2.8-3.7-4.1-5c-1.2-1.2-2.7-2.9-4.2-2.8c-2.4,0.1-3.2,1.6-4.6-1.1c-0.8-1.5-0.7-3.8-2.3-4.6
	c-0.9-0.5-2.3-0.4-3.3-0.4c-0.9,0-1.9,0.7-2.6,0.7c-1.9,0.1-3.7-1.6-5.4-2c-1.2-0.3-2.1-0.3-3.3,0.4c-0.9,0.5-0.9,1.3-1.6,1.9
	c-1.3,1.1-4.1,0.1-4,3c-0.8-0.4-1.7-1.5-2.5-1.6c-0.8,0-2.7,1.2-3,1.7c0.8,0.4,2.3,1.1,2,2.1c-0.8,0-1.9,0.1-2.5,0.7
	c-0.8,0.5-0.5,1.2-1.1,1.7c-0.9,0.9-2.7,0.9-3.7,2c-1.7,1.7,0.5,1.7-0.1,3.7c-0.7,1.9-2.3,2.6-3.7,3.7s-2.4,2.3-2.7,4
	c-0.1,1.5,0.3,3.7,0,4.9c-0.3,2-2.4,1.9-3.3,3.2c-1.1,1.6,0,2.8,1.3,3.6c-0.3,0.7,0.1,3,0.4,3.8c0.4,1.3,1.2,1.6,2.5,1.7
	c0,2.6,3.3,1.5,4.6,1.5c1.3,0,2.8,2.3,4.4,0.4c2.3,1.3,2.5,8.6,3.8,10.2c1.2,0.4,2.1-1.7,3.3-1.6c0,1.2,1.3,4.2,2.9,4.2
	c0.1,1.1,0.1,2.3,0,3.3c-3.3-1.1-2.9,1.7-2.3,3.8c0.7,2.1,1.5,3.8,1.5,6.4l-1.3,2.4c-0.4-0.3-0.7,0.9-1.1,1.6
	c-0.5,0.8-1.3,1.6-2,2.3c-1.3,1.5-2.9,3-4.1,4.5c-2.5,3.2-4.8,6.4-7.3,9.4c-5.4,6.5-9.9,13.6-15.2,20c-0.1,0.1-0.1,0.1-0.3,0.3
	l-0.1,1.9c-0.5,0.1-1.2,0.3-1.7,0.4c-4.2,1.1-8.5,1.1-12.5,3c-1.7,0.8-3.4,1.6-4.8,3c-1.3,1.3-2.3,2.9-3.6,4.2
	c-2.4,2.7-3.4,6.1-6,8.3c-0.7,0.7-1.7,1.7-2.4,3h-21.6l2.4,4.8l18.2-1.2c0,1.1,0.7,1.9,2.3,2.1c3.7,0.7,8.9-0.8,11.8-3
	c2.9-2.3,5-4.8,6.9-7.7c2.5-3.8,6.4-5,10.2-6.2l-0.3,2.5c-2.7,3.2-4.8,7.3-6.8,11c-1.7,3.2-3.2,6.5-4.9,9.7
	c-0.9,1.6-1.7,2.8-2.9,4.2c-0.5,0.7-1.1,1.3-1.6,2.1c-0.7,1.1-0.5,1.3-1.6,1.2c-0.7-0.1-1.7-0.5-2.4-0.8c-0.9-0.3-2-0.7-2.9-0.9
	c-2-0.7-3.8-1.7-5.7-2.4c-2.5-0.8-4.6-0.4-4.1,2.8c1.3,0.4,2.6,1.2,3.8,1.9c1.2,0.5,2.4,1.2,3.4,1.9c0.9,0.7,2,1.5,2.5,2.4
	c0.7,1.1,1.5,3.4,1.3,4.6c-2.1,0.3-4.6,2.5-6.2,4c-2,1.9-4.1,3.6-5.7,5.7c-1.3,1.7-2.9,4.4-3.6,6.5c-0.7,2.4,2.7,3.7,4.2,5l-1.3,3.2
	c-0.7,0-2.4,3.2-3,4c-1.2,1.6-2.4,3.3-3.4,5.2c-2.3,3.8-4.1,8-5.4,12.1c-1.2,3.6-2.3,8.5-1.9,12.5c0.4,3.7,5,5,7.4,7.6
	c1.2,1.2-0.4,2.9-1.3,4.4c-0.8,1.3-1.7,2.8-2.7,4.2c-1.7,3-3.7,5.8-5.4,8.9c-1.7,3.2-4,6-6.6,8.5c-1.5,1.5-2.9,2.5-4.1,4.2
	c-1.1,1.5-2,3.4-3.2,4.8c-1.3,1.3-3,2.5-4.4,3.8H841l0.4-150.9l8.5,15c0,0,20.7-0.9,20.4-0.1c-0.3,0.8,7.8-3.2,9.7-4.9
	c1.9-1.9-7.3-1.3-7.3-1.3l-36.8-58.6l-24.5-2.9l25.6,44.8l-1.5,159h-24v5.2h30.5c-0.3,0.4-0.3,0.8-0.1,1.3c0.5,2.1,2.4,2.7,4.2,2.8
	c4.1,0.4,8.1,0.3,12.3,0.3c4.2,0,8.5,0.4,12.6-0.9c4.2-1.5,8.6-2.5,12.5-5.3c1.9,2.3,1.5,4,3.8,3c1.6-0.5,5.4-1.9,7.2-3.7
	c0-0.3,0.1-0.5,0.1-0.7c1.3-0.9,2.1,0.1,3.3,0.8c1.3,0.8,1.9,1.3,3.4,0.9c2-0.5,6-2.3,6.6-4.1l0.8-2.1c-1.1-1.3-0.3-6.6-0.5-8.6
	c-0.3-1.3-0.1-3.2-0.7-4.4c-0.5-1.2-1.5-2.1-1.6-3.4c-0.4-2.8,0-6.2,0.5-8.9c0.3-1.5,0.7-2.6,0.8-4.2c0.1-1.2,0-2.8,0.5-3.8
	c1.5,0,2.9-2.1,4-3.2c1.5-1.3,2.8-2.9,3.8-4.5c1.2-1.9,2.6-3.4,4-5.2s0.9-3.7,3.3-2.1c3.4,2.1,7,3.8,9,7.6c0.9,1.6,2.1,3,3,4.6
	c1.3,2.5,2,2.9,4,0.3c1.7-2.4,2.7-5.3,3-8.2c0.5-3,1.1-6,1.3-9.1c0.1-3.3,0.9-6.5,1.6-9.7c0.4-2,0.8-2.1,2.6-2.8
	c1.3-0.5,2.8-0.8,4.1-1.2c0.8-1.9,1.9-3.8,2.7-5.7c1.3-2.9,2.6-5.6,3.7-7.7l34.1,3.8l-64.1,85.3l6.8,4.2l66-88.4l27.7,2.4l22.9,86
	h8.1l-1.7-6.6h50.2v-4.4h-25.2L1081.6,688.1L1081.6,688.1z M1005.5,746l15-21.2l4.9,23.7L1005.5,746z"/>
<path fill="rgba(128, 128, 128, 0.4)"    d="M1579.5,686c7.3-8.3,11.8-23.7-4.2-2.6
	c-6,8-22.3,31.9-40,58.7c-0.5-1.3-1.2-2.8-1.7-4.1c-0.9-2.1-0.9-4-1.1-6.2c-0.3-4-1.9-7.6-1.9-11.8c0-4.2-1.5-8.3-2.4-12.3
	c-0.5-2.5-1.9-4.8-2.1-7.3c-0.3-2.8,0.8-6,1.3-8.6c0.5-2.8,1.1-5.6,1.6-8.3c0.3-1.5,0.7-2.8,0.7-4.2c0.1-1.1-0.4-3.3,0.5-3.8
	c0.9,2.4,3.7-0.8,4-2.1c0.4-2.3-1.1-3.6-1.6-5.4c-0.5-1.9-0.3-4.2-0.5-6.2c-0.4-2.3-0.9-4-1.7-6.1c-1.7-3.8-4-7.3-6-11
	c-0.5-0.9-0.9-1.9-1.3-2.8c-0.3-0.5-0.3-2.1-0.8-2.5c-0.9-0.7-1.5,0.1-2.5-0.1c-1.2-0.3-1.6-1.3-2.1-2.3c-0.8-1.3-2.1-3.2-2.1-4.6
	c1.6-0.5,3.2-2.9,4.4-4.2c1.2-1.3,2.3-2.8,3.3-4.2c1.2-1.6,2.1-2.8,3.7-3.6c1.7-0.9,2.8-2.1,4-3.6c2.4-2.8,4.5-6.6,5.3-10.1
	c1.1-4.2,0.8-7.6-3.2-9.8c-1.9-1.1-2.9-1.3-4.9-1.2c-0.5-1.6-3-2.5-4.5-2.8c-1.9-0.4-3.8,0.8-5.7,0c-1.7-0.7-3.3-2.1-4.9-2.8
	c-2-0.9-4.1-0.9-6.2-1.1c-4.5-0.4-7.9,1.2-12.1,2.9c-3.7,1.6-7.2,3-10.1,6.1c-1.2,1.2-2.4,2.1-2.9,3.6c-0.7,2.1,0.9,2,1.3,3.6
	c0.3,1.5-0.3,3.7-0.3,5.2c0,1.7-0.1,3.7,0.5,5.2c1.2,3,3.4,4.8,1.2,8.1c-0.8,1.2-2.3,2.3-1.5,3.7c1.1,1.7,2.1,1.2,2,3.6
	c-2-0.9-3.8,2.3-3.6,4c-1.9-0.7-4.2,1.2-4,3.2c-2.1-2.3-3,2.1-3,3.4c-0.1,2.6-0.1,4.6-0.8,7c-0.3,1.1-0.5,2.1-0.8,3.2
	c-0.3,1.1-0.1,2.1-0.8,3c-1.1,1.5-26.9,26.5-35.6,37.1l-37.6-51.9l-2.7,2.4l38.2,52.2c-0.3,0.3-0.4,0.7-0.5,0.9
	c-1.3,2.4,0.9,2.6,2.8,2.1l0.4,0.5c-1.6,3-2.3,6.9-3.4,10.1c-0.7,1.7-2.3,3.4-3.4,5c-0.4,0.7-1.1,2-1.7,2c-0.3,0-1.6-1.3-2-1.5
	c-1.6-0.9-8.7-5.3-9.4-1.9c-0.4,2.4,6.2,5.8,7.7,7.3c1.3,1.5,0.7,2-0.5,3.3c-1.2,1.2-2.5,2.3-3.7,3.3c-1.1,0.9-2.1,2-3.4,2.6
	c-1.5,0.8-3,0.5-4.4,1.3c-0.4,3.8-1.5,7-4.4,9.9c-2.5,2.5-4.9,5-6.8,8.1c-1.9,3-4.2,6-5.7,9.4c-1.7,3.8-2.1,7.4-2.4,11.5
	c-0.1,1.3-0.7,3-0.3,4.5c0.4,1.2,1.7,1.9,2.7,2.5c2,1.6,4.1,3.2,6,4.9c0.7,0.7,1.3,1.2,2.1,1.7l-33,54.2h1.6l33.7-52.5
	c0.7,0.5,1.3,0.9,2,1.5c2.4,2,4.5,3.3,7.4,4c-0.1,1.3-1.6,3-2,4.4c-0.7,2-1.1,4-2.1,5.8c-0.9,1.7-0.8,2.8,0.9,4.2
	c0.9,0.8,1.6,0.8,2.7,0.9c0.8,0.1,2.3-0.4,2.7,0.5l1.6,2.1c0.1,0.8,1.6,2,2.7,2.5c1.3,0.7,3.4,0,4.5,0.8c0.4,0.3,0.7,1.3,0.9,1.7
	c0.5,0.8,0.9,1.1,1.9,1.6c1.3,0.8,2.7,0.9,4.2,1.1c0.1,1.3,1.1,2.9,2.1,3.8c1.5,1.3,2.9,1.2,4.6,1.3c2,0.1,1.9,0.9,3,2.1
	c1.2,1.2,2,1.5,3.7,1.6c0.4,1.9-2.4,3.4-3.6,4.5c-1.5,1.3-2.8,2.9-4.5,3.8c-1.5,0.8-3.6,1.1-5.2,1.3c-2,0.3-4.5,0.1-6.2,1.1
	c-1.5,0.8-2.8,2.5-1.9,4s3.3,2,4.8,2.4c4,0.9,8.6,0.7,12.9,0.7c3.8,0,7.3-0.9,11-1.2c1.7-0.1,3.7-0.7,5.4-0.3
	c0.8,0.1,1.3,0.5,2.4,0.5c0.9,0,1.7,0.3,2.7,0.3c2.8,0,5.7-1.2,8.2-2.9l0,0l6.4,2.4c0,0,5.4-8.3,13.6-21.2c1.6-0.8,3.3-1.3,5.2-1.5
	c2.1-0.1,4.2,0.4,6-0.9c1.3-1.1,1.7-3.2,1.9-4.8c0.1-3.2-0.9-6.5-2.3-9.4c8.2-12.7,17.8-27.4,27.2-42h26.1v80.6h5.2v-81.2h3.7v-7.8
	h-3.7v-40C1571.1,698.1,1577.8,688,1579.5,686z M1488.1,708.3c-0.1,1.7-2,2.1-3.4,2.9c-1.3,0.8-2.8,1.5-4.2,2.4
	c-3.3,2-7.3,2.6-10.6,4.5c-2.7,1.5-5.2,4.1-8.1,4.9c4.1-4.4,8.1-9,11.9-13.6c2.1-2.4,4.2-4.9,6.4-7.3c0.9-1.1,1.9-2.1,2.8-3.2
	c1.3-1.5,2.3-1.3,3.7-2.3l0.8,0.3c0,1.9,0.1,3.7,0.3,5.4C1487.8,704,1488.4,706.4,1488.1,708.3z M1500.2,795.3
	c-0.8-1.6-1.5-3.2-2.3-4.6c-1.5-2.6-3.7-5.4-4.5-8.3c3-2.1,4.2-6.6,5.7-9.7c1.9-3.7,3.6-7.2,5.2-11c0.3-0.5,0.5-1.2,0.8-1.9h18.4
	C1515.5,772.1,1507.5,784.3,1500.2,795.3z M1556.6,752.1h-20.9c7.4-11.4,14.6-22.4,20.9-32.2V752.1z"/>
<path fill="rgba(128, 128, 128, 0.4)"    d="M1323.9,678.4l2.7-0.5l2.1-1.6l4.6,1.1l5.7,7.8
	l5.7-3.8l-46.5-61.7l-2.9,4.6l8.5,15.5l14.3,27.2l0.8,6c-2.5,1.3-5.8,4.2-5.8,4.2l-47.6,67.6l-16.7-0.8c1.9-0.7,3.6-1.5,5.2-2.9
	c1.5-1.2,2.8-2.6,3.8-4.2c1.5-2,1.7-3.2,2.1-5.4c0.7-4,1.3-8.6,0.5-12.9c-0.5-3.6-2.4-7-3.4-10.7c-0.5-1.7-0.9-3.6-1.6-5.3
	c-0.7-1.9-0.3-2.9,0.9-4.6c2.3-3,5-5.4,6.4-9.1c0.7-2.1,0.1-4.1,0.1-6.4c0-2.1,0.1-4.4,0-6.5c-0.1-1.9-0.5-3.7-0.9-5.6
	c-0.5-2-0.5-4-0.5-6.2c0-2.4,0-4.8-0.3-7c-0.3-2.1-1.1-4-1.3-6c1.1,2,8.3,9.3,10.6,6.4c0.1-0.3,0.4-1.6,0.4-2c0-1.1,0.3-0.7-0.5-1.3
	c-1.2-0.9-2.1-1.6-3-2.9c-1.6-2.1-3.3-5.2-4-7.6c0.5-0.1,0.8-0.4,1.2-0.7c-0.8-1.2-1.6-2.5-2.1-3.8c-0.3-0.8-0.4-1.6-0.7-2.4
	s-1.1-1.7-1.1-2.5c1.3,0,2.4,1.1,3.8,0.7c0.4-1.7-0.3-4.5-1.7-5.6c-1.6-1.1-4.4-2.1-6.2-2.4c-0.7-1.1-0.1-2.4-0.1-3.4
	c0-1.1-0.1-2.1-0.5-3.3c-0.4-1.2-1.3-2-1.7-2.9c-0.7-1.2,0-1.6,0.3-3c0.8-3.3,2.7-10.5-2.1-11.8c-0.1-2.7,0.9-4.2-0.7-6.6
	c1.3-1.2,1.5-2.5,0.5-4c3.6-1.3,7.8-3.3,10.3-6.6c2.7-3.4,2.3-8,0.3-11.7c-1.9-3.4-6.2-4.8-9.8-4.6s-7.4,3.4-6.8,7.3
	c0.5,3.7,6.2,5.8,9.5,5.7c-2.3,1.3-5.6,2.8-8.2,3c-0.9-3.2-1.7-5.7-4-8.3c-1.2-1.5-2-3-3.3-4.2c-1.2-1.2-2.6-1.6-4-2.3
	c-2-0.9-3.4-1.6-5.7-1.6c-2.1,0-4.5,0.1-6.5,0.5c-3.6,0.7-7,2.3-10.2,4.1c-3.2,1.9-5.7,4.4-7,7.8c-0.5,1.2-0.5,1.5-1.6,2.1
	c-0.8,0.5-1.7,0.7-2.5,1.5c-0.9,1.1-2.9,3.2-2.9,4.5c0.5-0.3,1.2-0.4,1.9-0.4c-0.8,1.2-1.9,3.2-1.5,4.6c0.3-0.3,0.8-0.4,1.1-0.7
	c-0.4,0.8-0.5,1.9,0,2.7c0.4-0.9,1.2-2,2.3-1.7c0.9,1.9,1.7,5.7,1.1,7.8c-0.4,1.2-1.7,2.1-2.1,3.4c-0.4,1.5,0.1,2.5,0.3,3.8
	c-0.1,0-0.3,0-0.4,0.1c-0.5,0.8-0.5,2.6-0.1,3.6c-4.2-0.5-1.9,4.2-1.1,6c-3.2,1.1,0.7,6,1.6,7.4l-43.3,54.1l-31.5-27.4v4.2
	l29.7,25.4l-6.5,7.9l4.5,2.4l5.7-7.2l5.3,4.5c-3.4,6.5-7.2,13.5-10.9,20.7c-4.4-1.6-11.9-4.2-15.5-4.8c-5.2-0.8-4.5,1.9,0,3
	c3.2,0.8,9.4,4.8,12.7,7c-14,26.8-27.8,53.3-28.9,56.8c-2.4,7.6,0,8.6,0,8.6l12.2,6.2l-24.5,50.5h2.7l25-48.9l10.7,5.4l-2.4,6
	c0.3,2.7,0.3,3.7,3.2,4c2.1,0.1,4.5,0.1,6.5-0.3c3.6-0.7,7-1.5,10.3-3c0.4,3.2,2.9,6.2,3.2,9.4c0.1,1.7-1.2,3.4-1.9,5
	c-0.8,1.7-1.6,3.3-2.5,4.9c-1.7,3.2-4.5,5.8-7.6,8c-3.3,2.1-8.2-0.3-11.8,0.7c-1.7,0.4-4,1.6-3,3.6c0.5,1.1,2.4,3,3.4,3.2
	c-1.3,1.3-2.1,2.3-0.8,4c1.2,1.5,2.9,1.7,4.5,2.3c3.2,1.1,7.3,1.3,10.9,1.6c3.7,0.4,7.8,0.3,11.5-0.3c3.6-0.7,6.5-1.5,9.8-2.8
	c0.4,0.7,0.3,2.4,1.1,2.8c0.4,0.3,2.8-0.1,3.4-0.3c1.9-0.3,3.7-1.3,5.2-2.3c2.1-1.3,2.5-2.1,3.2-4.5c0.8-3,2.7-8.9,1.1-11.9
	c-0.8-1.5-2.4-2-3.3-3.8c-0.8-1.6-1.5-3.2-2.3-4.9c-0.9-2-0.8-4-1.2-6.1c-0.3-1.7-1.7-4.1-1.3-5.7c2.1-0.5,5,0.4,6.8,1.2
	c2.1,0.9,4.8,1.1,4.1-2.3c-0.1-0.9-1.5-2-1.3-2.9c0.3-1.1,2-1.5,2.8-1.5c2.3,0.1,4.1,2.3,6.2,2.3c0.9-3.4,1.3-6.6,1.1-10.2
	s0.8-7,0.5-10.7c-0.3-3.3-0.3-6.8-0.3-10.2c0-2.3,0.3-4.5,0.3-6.8c0-1.6,0.1-4.6,1.1-5.7l-0.5-4.6c0.1,0,0.4-0.3,0.5-0.5l47.8,2.8
	l-62,88.1h8.6c0,0,32.3-44.9,62.7-87.6l26.6,1.6l19.3,76.6h-17.8v4.4h19.2l1.6,6l8.3-1.1l-1.3-4.9h26.6v-4.4h-26.4L1323.9,678.4
	L1323.9,678.4z M1167.9,687.1l-4.9-4.2l21.2-26.6C1184.2,656.2,1177.1,669.6,1167.9,687.1z M1213.7,677.6c-0.5,1.9-1.3,3.4-1.7,5.2
	c-0.5,2.3-0.4,4,0,6.1c0.3,1.5,2,4,1.1,5.3c-0.4,0.7-1.3,0.9-2,1.1c-1.1,0.4-1.7,0.5-2.7,1.2c-1.6,1.2-2.8,2.3-3.6,4
	c-1.6,3.6-1.2,8.2-2.1,12.2c-0.7,3.2-2.5,3-5.2,4.2c-1.2,0.5-2.1,1.6-3.4,2.1c-1.2,0.4-2.5,0.3-3.6,0.8c-0.1-1.7,1.9-4.1,2.8-5.4
	c1.3-2.1,2.7-4.1,4-6.2c2.4-4.1,4-8.3,5.8-12.5c1.7-3.8,3.3-7.8,5-11.7c1.7-3.7,2.5-8,4.8-11.4c0.3-0.4,0.3-0.8,0.8-1.1l1.9,0.3
	C1214.4,673.4,1214.2,675.9,1213.7,677.6z M1275,745.2c4.2-6,8.3-11.8,12.2-17.4l4.6,18.2L1275,745.2z M1320.2,824.7l-20.1-76.6v-2
	h-0.5l-6.9-26.2c13.1-18.8,23.2-33.7,26-38.6c0.4-0.8,0.8-1.6,1.2-2.3l0,0l0.4-0.1L1320.2,824.7L1320.2,824.7z"/>
<path fill="rgba(128, 128, 128, 0.4)"    d="M611,834.3c-2.5-0.4-15.9-9.4-17.2-9.7
	c-3.8-0.8-1.1-1.2-2.4-4.2c0,0,8.3-4.9,10.2-5.8c-0.3-2-0.9-4.1-1.3-6.2c-0.4-2.1-0.9-4.1-1.6-6c-1.3-4.2-2.3-8.7-3.4-13.1
	c-0.9-3.6-2.3-7-3.2-10.5c-1.1-4-1.5-8.2-2.1-12.3c-0.3-2-0.7-4.1-1.2-6c-0.5-2-1.5-3.8-2-5.7c-0.9-3.6-1.6-7.4-3.2-10.7
	c-1.7-3.6-6.4-4.8-9.5-6.1c-4.1-1.6-19.6-7.3-23.2-9.1c-3.7-2-7.4-2.7-11.5-3.3c0.1-1.9-0.7-4-1.1-5.8c-0.4-2-0.7-4-1.1-6
	c-0.5-1.9-0.8-3.6-1.1-5.4c-0.1-0.9-0.4-2-0.5-2.9c-0.1-0.7-1.2-4.6-1.2-4.6c2.4-0.3,4.9-1.2,7.3-1.6c2.5-0.4,4.8-1.2,7.3-1.7
	c2.4-0.5,4.6-0.7,7-1.1c2.1-0.4,4.6-0.9,6.8-1.1c0.4-1.6-0.8-3.6-1.2-5.2c-0.4-1.9-1.1-3.4-1.6-5.2c-0.7-2.1-0.3-2.5,1.6-3.7
	c1.6-0.9,3.2-1.6,4.8-2.3c3.7-1.7,6.4-3.4,10.6-3.4c2.5,0,3.2-0.3,5-2c0.1-0.1,0.3-0.3,0.5-0.5c1.1,1.2,2.1,2.8,2.9,4.1
	c1.6,2.9,5.2,0.5,8.6,0c3.4-0.5,5.2-4.5,2.4-6.8c-2.9-2.4-4.6,2.1-4.6,2.1s0,0-2.4-3.4c-0.4-0.5-1.3-1.2-2.8-2
	c0.3-0.8,0.3-1.7-0.4-2.6c-0.8-1.5-2-2.8-3.6-3.2c-1.6-0.5-3.2-1.1-4.1-2.7c-0.4-0.8-0.7-2.3-1.9-1.2c-0.7,0.5-0.3,1.7-0.7,2.5
	c-0.8-0.5-1.3-2-2.5-1.9c-1.3,0.1-1.6,1.7-1.9,2.8c-5.4-2.1-10.9-4-14.6-5.3c-2.1-3.6-5.3-6.5-9-8.1c-0.9-0.4-1.9-0.7-2.6-0.9
	l-17.5-89.4c0,0-1.9-1.3-3.4,0c-1.6,1.3-1.6,1.3-1.6,1.3l18.3,87.2c-0.5-0.1-1.2-0.1-1.7,0c-0.7,0.1-1.3,0.8-2.1,1.1
	c-2.5,1.1-10.1,1.7-9.7-2.5c-1.5-0.5-2.8-1.3-4.1-2c-0.8-0.4-4.5-1.6-4.2-1.5l-2.1-0.8c0-1.9,0-3.7,0-5.4c0-1.2,0.3-1.3,1.3-2.1
	c0.5-0.4,1.6-0.9,1.7-1.6c0.4-1.3-1.7-3.3-2-4.6c-0.4-1.2-0.5-3.8,1.2-4.2c0.5-1.2,0.4-2.9,0.3-4.1c-0.1-1.9-0.5-2,1.1-2.9
	c1.7-0.9,4-2.7,4.1-4.8c0.3-2-0.1-4,0-6c0.1-2.5-0.1-4.1-2.1-5.8c-1.5-1.2-3.2-2.3-4.6-3.3c-1.7-1.2-3.2-2.5-5.2-3.2
	c-2.1-0.7-4.2,0-6.2-1.1c-2.4-1.2-4.2-1.5-6.9-1.7c-2.3-0.1-4.2,0.5-6.5,0.7c-2.1,0.1-4.5,0.8-5.3,3c-0.8,0.3-1.6-0.3-2.3-0.5
	c-2.4-0.8-4.5,0.7-6.8,1.9c-2.4,1.3-2.5,2.8-4.1,4.5c-0.8,0.8-1.2,1.5-1.5,2.5c-0.3,0.9,0.1,2.1,0,2.9c-0.3,1.7-2.3,2.6-2.3,4.6
	c0,1.1,0.8,1.9,0.7,2.8c-0.1,0.9-0.8,1.5-0.8,2.7c0.1,2.1,0.3,4.1,0.3,6.2c0,2.3-0.1,4.1,1.1,6c0.5,0.8,3.3,3.7,3.8,3.4l1.3,2.4
	c0,0.8-1.3,2-1.6,3.2c-0.1,0.9,0.8,2.6,0.3,3.7c-0.4,0.7-1.1,0.5-1.6,0.9c-0.7,0.5-0.5,0.7-0.9,1.3c-0.7,1.2-1.2,2.1-2,3.2
	c-3.3,4-6.1,9.3-7.4,14.3c-1.1,4.1,0.1,8.3-0.3,12.6c-0.1,2.1,0,4.5,0.5,6.5c0.5,2,1.3,3.3,2.4,5.2c2,3.4,2,7.4,2,11.5
	c0,2.4,0.1,3.7,1.1,5.7c1.1,2,1.1,16.8,1.5,18.8c0.8,4.1-0.9,8.7-1.6,12.9c-0.5,3.6-2.3,7.4-3.4,10.9c-0.7,1.9-2,3.4-3.6,4.8
	c-0.8,0.7-1.7,1.3-2.6,1.9c-0.8,0.5-1.7,0.5-2.4,1.2l1.5,1.1l-8.6,0.3l-30.6-46V702l6.6,0.3l40.4-57.5l-59.8-6.5L364.8,699v1.1
	l45.7,1.6l4.5,6.8v54.3l-20,70.4h-3.8v4.9h53.8v-4.9H420v-66.9l1.5-5.3l27.7-1.3l31.7,47.4c-0.8,0.5-1.6,1.2-2.4,2
	c-0.5,0.7-0.9,1.7-1.6,2.3c-0.7,0.7-1.5,0.8-1.9,1.6c-0.7,1.5,1.6,3.8,2.3,5.3c0.7,1.7,1.2,2.8,2.4,4.4c0.4,0.5,0.7,1.7,1.2,2.1
	c1.2,1.1,1.6-0.3,2.5,0c1.5,0.4,1.6,4,2.1,5c1.5,3.4,3.8,6.2,6.6,8.7c1.3,1.2,3.2,2.3,4.6,2.9c2,0.8,9.8,1.6,12.3,1.1
	c2-0.4,3.8-0.4,5.4-1.6c0.9-0.7,1.5-1.2,1.6-2.4c0.1-1.9-0.9-2.3-2.3-2.9c-0.9-0.5-2.1-0.9-3-1.7c-1.1-0.8-1.5-2-2.4-2.9
	c-1.9-1.9-3.2-3.4-3.8-6.1c-0.5-2,0.8-5.2,2.4-6.5c1.6,0.8,3,2.7,4.2,4.1c0.7,0.9,2.3,3.7,3.7,3.8c1.3,0.1,3.8-2.9,4.6-3.8
	c1.3-1.6,2.1-3,3.7-4.4c3.4-3,7.6-5.3,10.7-8.6c1.2-1.3,2-3.3,3.3-4.5c1.6-1.5,3.4-2.1,5-3.8c3.2-3.8,7.4-6.6,11.1-9.8
	c2-1.7,3.4-3.8,5.3-5.6c1.5-1.5,3-2.9,4.4-4.5c1.3,1.2,1.6,3.7,2,5.4c0.5,1.9,1.2,3.7,1.7,5.7c1.3,4.1,1.7,8.1,2.4,12.3
	c0.4,2.1,0.4,4.1,0.5,6.2c0.3,2.1,0.8,4.1,1.1,6.2c0.1,2-0.4,4.2,0.1,6.1c0.3,0.9,1.3,1.9,3.6,2.8c-0.3,0.8-0.3,2.4,0,3.2
	c-1.6,1.5-1.5,4.6-1.2,6.5c0.1,1.6,0.8,5.4,2.6,6.2c0.8,0.4,6.1,0.3,7.3,0.5c2.4,0.4,5,0.1,7.6,0c0-0.5,0-1.2,0.1-1.7
	c2.1-0.3,3.8,1.2,6,1.5c2.1,0.3,4.1,0.3,6.2,0.3c4.4,0,8.5,0.4,12.9-0.3c1.2-0.1,4.9-0.3,5.7-1.1c0.4-0.4,0.7-1.9,0.5-2.5
	C622.6,837.6,612.5,834.7,611,834.3z M415.5,833.3h-14l14-49.4V833.3z M420.4,743.2v-27.3l4.6,7L420.4,743.2z M423.9,752.9l5.4-23.8
	l15.5,23.2L423.9,752.9z M531.7,772c-0.4,1.3-3,2.9-4.2,3.7c-1.7,1.2-3.6,1.9-5.3,3c-3.3,2.3-6.9,4.1-9.9,6.8
	c-2.6,2.4-5,5.3-7.8,7.7c-3.3,2.9-7.2,5.2-10.6,7.8c-1.6,1.2-2.8,2.5-4.6,2.7c-1.3,0.1-2.3,0.5-3.2,0.9l-29.9-45l12.9-0.5l1.7,1.3
	c0.3,0.7,5.2,1.7,6.2,2.1c2.4,0.8,4.6,1.1,7,1.5c2.1,0.4,4.4,0.5,6.5,0.9c2.1,0.4,4.4,0.1,6.5,0.3c4.4,0.4,8.5,0.4,12.5-1.1
	c0.8-0.3,2-0.8,2.8-0.8c0.8,0,1.7,0.7,2.6,1.1c2.1,0.9,4.5,1.7,6.8,2.5c2,0.7,4,1.3,5.7,2.1C528.8,769.6,532.3,770.3,531.7,772z
	 M532.3,682c1.2-1.6,2.4-3,3.3-4.8c0.9-1.7,1.5-3.4,2.1-5.2c0.5-1.2,1.7-4.2,3.3-3c0.5,0.4,1.7,4.6,3.3,2.4c1.7,0.8,2.9,1.5,4.9,1.6
	c2.1,0,4.2,0.1,6.2,0c2.4-0.3,3-0.8,4-3.2c0.7-1.7,0.9-3.4,0.8-5.4c0-0.7-0.1-1.3-0.3-1.9l11,2.7c-0.5,0.7-1.5,0.9-2.1,1.5
	c-1.1,0.9-0.9,1.9-2,2.8c-0.8,0.7-1.9,0.9-2.8,1.5c-2,1.2-4.5,2.3-6.1,3.7c0-0.1-0.1-0.3,0-0.4c-2,1.1-4.1,1.6-6.2,2.1
	c-2.3,0.5-4.1,1.9-6.2,2.4c-2.1,0.5-4.2,1.1-6.5,1.6C536.6,680.8,534.4,682.3,532.3,682z"/>
<polygon fill="rgba(128, 128, 128, 0.4)"    points="664,678.4 686.5,619.1 670.8,617.9 
	647,616.3 618.4,688.4 618.4,689.4 659.1,685.2 659.1,833.3 635.2,833.3 635.2,838.2 689,838.2 689,833.3 664,833.3 "/>
<path fill="rgba(128, 128, 128, 0.4)"    d="M292,712.1c1.5-1.1,4.4-0.9,6.1-1.5
	c3.7-1.3,7.4-3.2,11-5c3.3-1.7,6.8-3.2,10.2-4.9c3.6-2,7.3-3.8,11-5.7c3.6-1.9,7.4-2,11.3-2.5c2.1-0.3,3-1.5,4.4-2.7
	c0.5,1.3,1.1,2.8,1.3,4.2c1.1,4.5,5.7,5.7,9.4,4.6c3.7-1.1,4.5-8.1,0-8.1c-4.5,0-3.7-0.3-4.6-2.4c-0.3-0.4-0.7-1.2-1.2-2
	c0.5-2.1-1.6-8.6-2.9-9.9c-0.7-0.8-1.9-1.2-2.6-1.3c-0.5-0.1-0.5,0.3-1.1,0.1c-0.5-0.1-0.5-0.5-0.9-0.9c-0.8-0.7-1.2-1.2-2.1-1.2
	c-2,0-1.1,0.9-1.3,2c0,0.1-0.1,0.3-0.1,0.5c-4.4-2.3-9.9-5.3-13.4-7.6c-0.3-0.9-0.7-1.7-0.9-2.1c-1.1-1.6-2.3-3.8-3.8-5.3
	c-3-7-7.9-18.5-9.9-26.2c-1.1-4.1-3.4-13.2-6-23.3c1.1-0.4,2.3-0.9,3-1.9c3-3,1.7-6.6-2.1-7.7c-1.2-0.4-1.3-0.4-2.3-1.2
	c-0.5-0.4-1.1-0.5-1.6-0.7c-3.7-14.8-7.2-28.5-7.2-28.5h-1.7c0,0-4-0.3-2.9,2.4c0.3,0.8,2.9,9.8,6.4,21.9c-0.5-0.7-1.2-1.6-1.7-2.1
	c-0.8-0.7-2-0.9-2.8-1.5c-2.3-1.2-4.4-2.3-6.8-3c-4.2-1.6-9.7-2.3-14.3-1.9c-2,0.1-4,1.5-5.7,2.3c-2,0.9-3.7,1.9-5.3,3.2
	c-0.7,0.5-1.3,1.5-2,1.7c-0.8,0.1-1.3-0.4-2.3,0c-1.3,0.5-2.1,1.9-3.3,2.8c-1.2,1.1-2.7,1.6-3.8,2.7c-1.5,1.2-2.6,2.5-4.4,3.4
	c-3.7,2-6.9,4.1-8.3,8.1c-0.3,0.7-0.7,1.3-0.8,2.1c-0.3,1.6-0.1,1.5-1.2,2.6c-1.1,1.2-1.3,2.9-2.4,4.1c1.3-0.3,2.5-1.1,3.3,0.4
	c0.7,1.2,0,2.9-1.7,2.5c0.7,1.1,3,3,4.1,1.5c0.7,0.8-2.1,5.2,1.1,3.7c0,0.8-1.1,2.3-0.4,3c0.9,1.3,2.4,0,3.3-0.1
	c1.9-0.1,0.7,0.7,1.3,1.9c0.7,1.1,1.9,0.7,3,0.8c0.7,2.3,0.1,2.5-1.5,4.2c-1.3,1.5-2.7,3-3.8,4.6c-2.1,2.8-3.4,6.9-4.1,10.2
	c-0.7,4-0.8,8.2-0.8,12.5c0,4.2,1.1,8.5,1.1,12.6c0,4.2-1.7,8.2-2.1,12.3c-0.4,4.4,2.1,7.3,4.9,10.5c1.2,1.3,3.6,2.6,3.7,4.4
	c0.1,1.6-0.3,4.4-0.8,5.7c-0.8,2-2,3.4-2.3,5.4c-0.4,2.1,0,4.5,0.1,6.5c0.1,1.7,0.5,3.3,0.5,5.2s-0.3,4.2,0.3,6
	c0.9,3.2,3.3,5.6,4,8.9c0.5,3.3,0.4,7.4,2.5,10.5h-20.9c-9.1-14.8-17.9-29.2-24.4-40v-11.3h22l4.5-62.3l-64.4-3.4l-9,65.9h33.7
	c2.1,3.6,4.9,8.5,8.5,14.3v64.3l-10.9,53.3h-13.4v4.9h12.5h5.4h6.4h4.9h24.6v-4.9h-24.6v-50.3l4.5-22.3h17.9
	c18.9,31,39,63.3,45.6,73.9c0,0.3-0.1,0.5-0.1,0.7c-0.4,1.7-0.9,4.2,0.8,4.9c1.6,0.7,3.2,0.9,4.9,1.6c1.6,0.7,3.7,1.7,5.4,1.6
	c1.3-0.1,1.9-0.5,3.2-0.3c0.9,0.3,1.9,0.7,2.9,0.8c2.3,0.1,4.5-0.3,6.8-0.3c4.5,0,9,0.8,13.5,0.5c1.3-0.1,2.4-0.4,3.7-0.3
	c1.3,0.1,2.3-0.3,3.6-0.3c0.1-0.7,0-1.5-0.4-2c2.1,0.1,4.6-0.4,6.8-0.5c2.3-0.3,4.4-0.7,6.8-0.8c-0.3-2.5-1.3-5-3.3-6.8
	c-2-1.7-4.8-2.5-7.2-3.3c-1.2-0.4-2.4-1.1-3.6-1.6c-1.3-0.7-1.5-1.5-2.1-2.9c-1.1-2.4-3.7-4.8-3.4-7.4c-0.1,0-0.3,0-0.4-0.1
	c0.3-3,5.7-6,7.7-8.1c2.6-2.8,5.3-5.7,8.2-8.3c2-1.9,4-3.6,6.1-5.4c2-1.7,3.3-3.7,5-5.7c1.6-1.9,3.7-3.2,5.4-5c1.3-1.3,2.5-3,4-4.4
	c1.9-1.7,3.8-3.3,5.4-5.2c1.5-1.7,2.9-3.8,4.2-5.7c1.3-1.9,2.6-4.1,3.6-6.1c0.7-1.5,2-5.4,0.8-6.8l-2.1-2.4c0.1,0,0.3,0,0.3-0.3
	c-1.7-3.2-4.1-5.7-6.8-8.1c-3.4-3-7-4.4-11.3-5.8c-3.7-1.2-7.4-2.4-11.3-3.8c-3.3-1.2-6.2-3.4-9.7-4.5c-3.7-1.1-7.2-2.9-11-3.7
	c-2-0.4-3.7-0.9-5.6-1.7c-1.6-0.7-3.7-1.3-5.2-2.1c-0.9-0.5-0.9-1.2-1.6-2c-0.3-0.4-0.7-0.5-1.1-0.8c-0.4-0.3-0.9,0-1.1,0
	c-1.1-0.7-2.4-3.3-2.3-4.2c0.1-1.1,1.1-2,1.2-3.2C291.6,713.4,291,712.9,292,712.1z M195.6,701.4h1.9v3
	C196.8,703.4,196.2,702.4,195.6,701.4z M197.4,833.3h-5.3l5.3-26.4V833.3z M202.3,756.1v-32.2c1.6,2.7,3.2,5.3,4.9,8.1L202.3,756.1z
	 M208.4,752.6l2.8-13.9c2.8,4.5,5.6,9.1,8.5,13.9H208.4z M290,641.9c0.4-1.2,0.5-2.5,0.7-3.8c1.6-0.5,2.5-1.2,2.4-3.2
	c3,0.5,0.8-3.3,2.3-4.2c0.8-0.5,2,0.5,2.6-0.4c0.5-0.7,0.1-2.4,0.1-3.2c0-2-0.4-4.4,0.4-6.1c0.9-1.7,2.4-2.7,3-4.6
	c0.3-1.1,0.3-2.1,0.4-3.2c0-0.4,0.1-0.7,0.1-0.8c4.6,16.2,9.7,33.5,12.6,44.1c-1.6-1.2-2.6-1.9-2.6-1.1c0.3,2.4-4.2,0.5-9.1-2.7
	s0-4.6,0-4.6s-1.3,0.4-3.4-2C298.5,644.9,294.2,643.2,290,641.9C289.9,641.9,290,641.9,290,641.9z M297.1,669.6
	c-1.3,0.8-2.8,1.5-4.2,2.3c-1.7,1.1-3.7,3-5.7,3.4c-0.3-2.4-0.3-4.6-0.3-6.9C290.4,669.2,294,669.6,297.1,669.6z M295.3,794.4
	c2,0.1,4.2,0,6.2,0.3c-1.2,1.7-2.8,2.9-4.1,4.4c-1.7,1.9-3.2,3.7-4.9,5.4c-2.6,2.9-5.6,5.3-8.3,8.2c-2.4,2.4-4.9,5.3-7.7,7.4
	c-2,1.6-3.8,3-4.9,5c-9.1-14.8-24.8-39.9-39.8-64.4h40.4c1.1,0.5,2,1.1,2.8,1.6c0.8,0.7,1.1,1.3,2.1,1.9c0.8,0.4,1.6,0.5,2.4,1.1
	c1.9,1.3,0.8,4,2.5,5.7c1.7,1.7,3.6,1.6,3.6,4.5c0,2.1-0.3,4.5,0.3,6.5c0.7,3,0.1,10.9,3.2,12.3
	C290.6,794.9,293.4,794.2,295.3,794.4z M290.3,695.7c-0.9,0.1-1.7,0.5-2.5,0.5c-0.4-1.7,1.3-2.4,2.5-3.2c6.4-4.1,13-8.3,17-15.1
	c0.7-1.2,1.3-2.3,2.1-3.3c1.5,1.6,3.2,3.4,5,5.4c4.9,5.4,9.7,4.2,9.7,4.2l7.6-7.6l4.4,2.9c-1.6,0.8-3.7,1.1-5.3,1.7
	c-1.9,0.9-2.6,1.9-3.8,3.4c-0.7,0.9-0.9,2.1-1.5,2.9c-0.5,0.8-1.5,0.9-2.1,1.3c-3.6,1.9-7.2,3-11,4.2c-3.8,1.2-7.9,2.4-12.1,2.4
	c-2.3,0-4.4,0-6.5,0.3C292.6,695.8,291.5,695.5,290.3,695.7z"/>
<path fill="rgba(128, 128, 128, 0.4)"    d="M148.1,829.8c-3.2-1.6-6.5-3.3-9.4-5.6
	c-6.9-5.6-5.3-16-3.3-23.3c1.5-5.4,2.4-10.6,3.7-15.9c1.2-5,3.2-10.1,4.1-15.2c0.9-5.2,2-10.7,2.4-16c0.4-4.5,1.9-12.5-1.3-16
	c-3.4-3.8-9.8-6.4-14.8-6.9c-2.9-0.3-6-0.1-8.9-0.1c-3.2,0-3.8-2.1-6.6-2.8c-2.7-0.7-6.1,0.1-8.7-0.3c-2.8-0.4-5.6-0.7-8.3-1.5
	c-2.7-0.7-5.2-1.1-7.9-1.1c-2.3,0-6.2,0.5-8.1-0.7c-1.7-1.2-2.4-5.4-2.8-7.3c-0.5-2.7-0.7-5.2-1.1-8c-0.1-0.7-0.3-1.5-0.4-2.1
	c4.5,4.2,9,7.7,14.4,10.7c2.7,1.5,4,2.4,6.8,1.5c2.7-0.9,4.6-2.8,6.6-4.9c0.9-0.9,1.6-1.9,2.3-2.8l0.9,4.2h4.5l-1.9-8.3
	c1.3-1.1,2.8-2,4-3c3.8-3.7,6.9-8.1,10.2-12.2c2.8-3.6,6.5-7.8,10.7-9.5c2.3-0.9,5.8-2,8.1-3.8c2.1,2.3,5.2,5,6.9,5.2
	c3.2,0.4,5.3-1.9,6.2-6c0.7-2.9-5.6-4.9-6-2.4c-0.4,2.4-6.8-4.5-6.8-4.5c-0.4-0.7-0.9-2.3-1.3-2.8c-1.6-2-5.3-0.8-7.6-1.1
	c-2.3-0.3-4.9-1.6-7.3-2.4c-2.8-0.9-5.6-1.6-8.2-2.3c-2.9-0.8-6.2-1.7-9.1-2.8c-4-1.3-7.3-3.8-11-5.4c-0.7-0.3-1.2-0.5-1.9-0.8
	l-7.8-31.3l-2.8,2.8l6.5,26.9c-2.5-0.9-5.3-1.6-7.8-1.5c-1.3,0.1-2.6,0.7-3.8,0.7c-1.1,0-2.3-0.8-3.2-0.9c-2.3-0.5-5-1.5-7.6-1.2
	c0-1.9,2.3-2.4,0.5-4.5c0.3,0,1.3-0.9,1.5-1.1c0.8-0.9,0.4-2.3,0.4-3.3c2.7-0.5,2.5-2.5,1.6-4.5c-1.1-2.3-1.5-3.6-1.3-6.4
	c0.3-4.6,1.7-9-1.2-13.1c-5.2-7.6-16.2-13-24.6-10.9c-2.5,0.7-4.4,1.3-6.5,3.2c-1.9,1.6-2.6,3.7-4.1,5.3c-1.7,1.6-4,2.9-5.6,5.2
	c-1.3,2-1.6,4.9-4.6,5.2c1.1,1.7-3.3,3-2.9,5.6c0.3,1.6,1.2,2.3,0.4,4.1c-0.4,1.1-2.3,2.3-1.1,3.2c-0.7,1.1-2.5,2.5-3,3.4
	c-0.4,0.9-0.3,2.4-0.7,3.4c-0.7,1.9-3.8,5.4-0.5,6.6c-0.3,0.9-1.2,2-1.3,3c-0.3,1.3,0.5,2.4,0.7,3.6c0.1,2.4-1.5,4.4-1.7,6.9
	c-0.4,5.3,1.2,9.7,1.5,14.6c0.1,2.5,0.8,4.8,1.1,7.3c0.3,2.5-0.9,5-0.3,7.7c0.5,2.1,2.4,4.1,3.7,5.7c0.7,0.8,1.5,1.6,2.1,2.3
	c0.5,0.5,2,1.2,2.3,1.6c1.7,2,2,5.6,2.9,8c0.9,2.3,2,4.4,2.9,6.6c0.9,2.4,0.8,4.5,0.1,6.8L7.3,686.8l-4.5,1.7l27.4,41.3L2.8,838.2H8
	l17.6-72.3l26.8-2.6L88,817c-2.3,8.3-5.7,22.1,4.6,22.1c5.8,0,11.3-0.4,17.1-0.4c2.9,0,5.3,0.7,8,0.7c1.5,0,7.6-0.5,8.3-1.1
	c1.3-0.9,0.1-2.4,2.3-2.1c0.9,0.1,2.1,1.5,3.2,1.7c2.4,0.8,5.7,0.5,8.2,0.8c2.9,0.3,10.9,0.3,13.6-0.4c2.7-0.7,0.5-1.1,3-1.9
	C156.9,834.9,149.7,830.7,148.1,829.8z M105.5,678.4c1.9,0.3,4.1,0.1,6,0.3s3.8,0.3,5.6-0.1c2.3-0.5,2.7-0.9,3.4-2.9
	c0.5-1.2,1.9-2.9,1.1-4.1c2.9-0.8,4.4,1.1,8.9,2c-0.1,0.8,0,0-0.4,0.8c-0.4,0.8-0.4,1.7-0.8,2.4c-0.7,1.3-2.4,2.5-3.6,3.7
	c-2.9,2.8-5.8,5.4-9,7.8c-1.7,1.3-3.7,1.9-5.3,3c-1.7,1.3-2,2.5-4.4,2.1l0,0l-4-15.6C104,678,104.9,678.3,105.5,678.4z M81.9,675.7
	c2.7-0.3,5.6-0.5,8.3-0.8c-0.3-3.4,4.8-4,7.6-2.8l4.9,20c-0.5,0-1.1,0-1.6,0.1c-2.1,0.5-1.9,2.1-2.9,3.4c-3.6-1.9-7.6-6.5-9.9-9.8
	c-2.7-3.6-4.9-7.2-8.2-10.3l-0.1-0.1C80.6,675.7,81.2,675.7,81.9,675.7z M27.6,757.9l4.2-17.5c0.1,0.4,0.1,0.8,0.3,1.3
	c0.7,2.3,1.1,5.2,2,7.4c1.5,3.6,4,6,7,7.4L27.6,757.9z M100.7,762c-1.2,6.4-3.2,13-4.9,19.5c-1.5,5.3-4.9,24-5.8,28l-31.4-46.6
	l42.7-4.1C101.1,759.7,100.8,760.7,100.7,762z M123.6,777c-0.5,6.1-0.9,12.1-1.3,18.2c-0.5,5.8-0.8,11.7-1.7,17.4
	c-0.4,2.7-0.8,5.7-1.1,8.3c-0.1,1.7-0.9,8,1.6,7.3c-4.1,0.8-8.2-4.1-11-6.5c-2-1.7-4-2.8-3.8-5.7c0.1-2.3,0.3-4.8,0.7-7
	c1.7-9.3,3.7-18.5,7-27.4c1.6-4.5,3.3-9.5,4.5-14.3c0.5-2.1,1.5-4.4,2.1-6.8c1.9,2.1,2.8,5.4,2.8,8.1
	C123.2,771.5,123.9,774.2,123.6,777z"/>
</svg>
