<?xml version="1.0" standalone="no"?>
<!DOCTYPE svg PUBLIC "-//W3C//DTD SVG 20010904//EN"
 "http://www.w3.org/TR/2001/REC-SVG-20010904/DTD/svg10.dtd">
<svg version="1.0" xmlns="http://www.w3.org/2000/svg"
 width="700.000000pt" height="700.000000pt" viewBox="0 0 700.000000 700.000000"
 preserveAspectRatio="xMidYMid meet">
<metadata>
Created by potrace 1.11, written by Peter Selinger 2001-2013
</metadata>
<g transform="translate(0.000000,700.000000) scale(0.100000,-0.100000)"
fill="#000000" stroke="none">
<path d="M3508 6985 c-2 -3 -3 -1213 -2 -2689 l3 -2684 -72 28 c-171 67 -251
84 -407 84 -255 0 -406 -38 -652 -161 -364 -183 -620 -441 -713 -720 -36 -107
-44 -246 -20 -345 27 -112 78 -201 170 -295 88 -89 169 -136 295 -170 92 -25
333 -24 450 1 189 41 396 127 558 232 122 79 163 113 277 228 139 139 240 311
310 526 l28 85 3 455 c2 250 4 1141 5 1980 1 839 4 1530 7 1537 2 8 15 10 35
6 51 -9 191 -54 202 -64 5 -5 16 -9 25 -9 43 0 451 -224 526 -289 11 -10 45
-36 75 -58 68 -50 160 -149 224 -239 69 -97 185 -330 223 -449 18 -55 37 -109
42 -120 8 -18 34 -129 46 -195 3 -14 9 -41 14 -60 5 -19 12 -64 15 -100 4 -36
9 -68 12 -73 2 -4 5 -81 5 -170 1 -297 -50 -488 -303 -1141 -77 -197 -137
-361 -134 -364 3 -3 25 16 49 41 46 50 159 260 216 402 18 44 40 98 50 120 29
67 137 383 174 510 97 336 118 453 121 700 3 194 -5 292 -35 428 -6 29 -14 63
-16 75 -26 135 -154 419 -271 604 -62 98 -173 255 -198 282 -6 6 -38 47 -72
91 -33 44 -85 107 -114 141 -30 33 -79 89 -109 124 -46 54 -141 162 -259 295
-75 85 -220 271 -276 355 -129 193 -193 348 -240 581 -32 162 -33 166 -34 342
l-1 147 -113 0 c-63 0 -116 -2 -119 -5z"/>
</g>
</svg>
